<svg width="512" height="488" viewBox="0 0 512 488" fill="none" xmlns="http://www.w3.org/2000/svg">
<path d="M379.401 185.01C379.531 183.27 379.621 181.51 379.621 179.74C379.621 141.55 348.661 110.59 310.471 110.59C307.151 110.59 303.891 110.84 300.701 111.29C290.431 85.9799 265.611 68.1299 236.621 68.1299C203.861 68.1299 176.431 90.9299 169.301 121.52C162.741 119.46 155.771 118.34 148.531 118.34C110.341 118.34 79.3906 149.3 79.3906 187.49C79.3906 209.35 89.5506 228.83 105.391 241.51C94.1606 253.8 87.3106 270.16 87.3106 288.11C87.3106 326.3 118.271 357.26 156.461 357.26C175.431 357.26 192.601 349.62 205.101 337.26C215.351 362.61 240.181 380.51 269.211 380.51C305.691 380.51 335.551 352.26 338.161 316.44C342.911 317.47 347.831 318.03 352.901 318.03C391.081 318.03 422.041 287.07 422.041 248.88C422.041 220.09 404.431 195.41 379.401 185.01Z" fill="#1A1A1A"/>
<path d="M82.7299 79.538C99.1709 79.538 112.499 66.21 112.499 49.769C112.499 33.328 99.1709 20 82.7299 20C66.289 20 52.9609 33.328 52.9609 49.769C52.9609 66.21 66.289 79.538 82.7299 79.538Z" fill="#1A1A1A"/>
<path d="M429.271 415.148C445.712 415.148 459.04 401.82 459.04 385.379C459.04 368.938 445.712 355.61 429.271 355.61C412.83 355.61 399.502 368.938 399.502 385.379C399.502 401.82 412.83 415.148 429.271 415.148Z" fill="#1A1A1A"/>
<path d="M158.845 468C175.286 468 188.614 454.672 188.614 438.231C188.614 421.79 175.286 408.462 158.845 408.462C142.404 408.462 129.076 421.79 129.076 438.231C129.076 454.672 142.404 468 158.845 468Z" fill="#1A1A1A"/>
</svg>
