<svg width="60" height="60" viewBox="0 0 60 60" fill="none" xmlns="http://www.w3.org/2000/svg">
<path d="M12.4365 3.7207C10.1074 3.7207 8.68652 4.96582 7.66113 5.94727C6.63574 6.94336 5.85937 7.9834 5.12695 8.93554C4.40918 9.87304 3.73535 10.6934 3.31055 11.1035C2.88574 11.5283 2.85645 11.2207 3.73535 11.2207C1.68457 11.2207 0 12.9053 0 14.9561C0 15.9521 0.395509 16.9043 1.09863 17.6074C1.80176 18.3105 2.75391 18.7061 3.73535 18.7061C6.0791 18.7061 7.5 17.4756 8.51074 16.4795C9.53613 15.4834 10.3271 14.4434 11.0449 13.5059C11.6016 12.7881 12.0264 12.29 12.4365 11.8359C12.8467 12.29 13.2715 12.7881 13.8281 13.5059C14.5459 14.4434 15.3369 15.498 16.3477 16.4795C17.373 17.4756 18.7939 18.7061 21.1377 18.7061C23.4814 18.7207 24.8877 17.4756 25.9131 16.4795C26.9385 15.498 27.7295 14.4434 28.4473 13.5059C29.0039 12.7881 29.4287 12.29 29.8389 11.8359C30.249 12.29 30.6738 12.8027 31.2158 13.5059C31.9482 14.458 32.7246 15.498 33.75 16.4941C34.7754 17.4902 36.1963 18.7207 38.5254 18.7207C40.8691 18.7207 42.29 17.4902 43.3008 16.4941C44.3262 15.498 45.1172 14.458 45.835 13.5205C46.3916 12.8027 46.8164 12.3047 47.2266 11.8506C47.6367 12.3047 48.0615 12.8027 48.6182 13.5205C49.3359 14.458 50.127 15.5127 51.1523 16.4941C52.1777 17.4902 53.584 18.7207 55.9277 18.7207C57.9932 18.7354 59.6631 17.0508 59.6631 14.9854C59.6631 13.1836 58.374 11.6309 56.5869 11.3086C56.543 11.2793 56.4697 11.2354 56.3672 11.1328C55.9277 10.7227 55.2539 9.88769 54.5361 8.95019C53.8184 8.01269 53.0273 6.95801 52.0166 5.96191C50.9912 4.98047 49.5703 3.75 47.2412 3.73535C44.8975 3.73535 43.4766 4.98047 42.4512 5.96191C41.4258 6.95801 40.6494 7.99804 39.9316 8.93554C39.375 9.65332 38.9355 10.1514 38.54 10.6055C38.1299 10.1514 37.6904 9.65332 37.1484 8.93554C36.416 7.99804 35.6396 6.95801 34.6143 5.96191C33.5889 4.96582 32.1826 3.73535 29.8389 3.73535C27.4951 3.73535 26.0742 4.96582 25.0635 5.96191C24.0381 6.95801 23.2471 7.99804 22.5293 8.93554C21.9727 9.65332 21.5479 10.1514 21.1377 10.5908C20.7275 10.1514 20.3027 9.65332 19.7461 8.93554C19.0283 7.99804 18.2373 6.94336 17.2266 5.94727C16.2012 4.96582 14.7803 3.73535 12.4512 3.7207H12.4365ZM12.4365 22.4854C10.1074 22.4854 8.68652 23.7158 7.66113 24.7119C6.63574 25.708 5.85937 26.748 5.12695 27.6855C4.40918 28.623 3.73535 29.458 3.31055 29.8682C2.88574 30.2783 2.85645 29.9854 3.73535 29.9854C1.68457 29.9854 0 31.6553 0 33.7207C0 34.7168 0.395509 35.6689 1.09863 36.3721C1.80176 37.0752 2.75391 37.4707 3.73535 37.4561C6.0791 37.4707 7.5 36.2256 8.51074 35.2295C9.53613 34.248 10.3271 33.1934 11.0449 32.2559C11.6016 31.5527 12.0264 31.0547 12.4365 30.6006C12.8467 31.0547 13.2715 31.5527 13.8281 32.2559C14.5459 33.208 15.3369 34.248 16.3477 35.2441C17.373 36.2402 18.7939 37.4707 21.1377 37.4707C23.4814 37.4707 24.8877 36.2402 25.9131 35.2441C26.9385 34.248 27.7295 33.208 28.4473 32.2705C29.0039 31.5527 29.4287 31.0547 29.8389 30.6006C30.249 31.0547 30.6738 31.5527 31.2158 32.2705C31.9482 33.208 32.7246 34.2627 33.75 35.2441C34.7754 36.2402 36.1963 37.4707 38.5254 37.4707C40.8691 37.4854 42.29 36.2402 43.3008 35.2441C44.3262 34.2627 45.1172 33.208 45.835 32.2705C46.3916 31.5674 46.8164 31.0547 47.2266 30.6006C47.6367 31.0547 48.0615 31.5527 48.6182 32.2705C49.3359 33.2227 50.127 34.2627 51.1377 35.2588C52.1631 36.2549 53.584 37.4854 55.9277 37.4854C57.9932 37.4854 59.6631 35.8154 59.6631 33.75C59.6631 31.9336 58.374 30.3955 56.5869 30.0732C56.543 30.0439 56.4697 29.9853 56.3672 29.8975C55.9277 29.4727 55.2539 28.6523 54.5361 27.7148C53.8184 26.7627 53.0273 25.7227 52.0166 24.7266C50.9912 23.7305 49.5703 22.5 47.2412 22.5C44.8975 22.5 43.4766 23.7305 42.4512 24.7266C41.4258 25.7227 40.6494 26.7627 39.9316 27.7002C39.375 28.418 38.9355 28.916 38.54 29.3701C38.1299 28.916 37.6904 28.418 37.1484 27.7002C36.416 26.7627 35.6396 25.708 34.6143 24.7266C33.5889 23.7305 32.1826 22.5 29.8389 22.5C27.4951 22.4854 26.0742 23.7305 25.0635 24.7266C24.0381 25.708 23.2471 26.7627 22.5293 27.7002C21.9727 28.4033 21.5479 28.9014 21.1377 29.3555C20.7275 28.9014 20.3027 28.4033 19.7461 27.7002C19.0283 26.748 18.2373 25.708 17.2266 24.7119C16.2012 23.7158 14.7803 22.4854 12.4512 22.4854H12.4365ZM12.4365 41.25C10.1074 41.2354 8.68652 42.4805 7.66113 43.4766C6.63574 44.458 5.85937 45.498 5.12695 46.4502C4.40918 47.3877 3.73535 48.208 3.31055 48.6328C2.88574 49.043 2.85645 48.7354 3.73535 48.7354C1.68457 48.7354 0 50.4199 0 52.4707C0 53.4668 0.395509 54.4189 1.09863 55.1221C1.80176 55.8252 2.75391 56.2207 3.73535 56.2207C6.0791 56.2207 7.5 54.9902 8.51074 53.9941C9.53613 52.998 10.3271 51.958 11.0449 51.0205C11.6016 50.3027 12.0264 49.8047 12.4365 49.3506C12.8467 49.8047 13.2715 50.3027 13.8281 51.0205C14.5459 51.958 15.3369 53.0127 16.3477 53.9941C17.373 54.9902 18.7939 56.2207 21.1377 56.2207C23.4814 56.2354 24.8877 54.9902 25.9131 53.9941C26.9385 53.0127 27.7295 51.958 28.4473 51.0205C29.0039 50.3027 29.4287 49.8047 29.8389 49.3506C30.249 49.8047 30.6738 50.3174 31.2158 51.0205C31.9482 51.9727 32.7246 53.0127 33.75 54.0088C34.7754 55.0049 36.1963 56.2354 38.5254 56.2354C40.8691 56.2354 42.29 55.0049 43.3008 54.0088C44.3262 53.0127 45.1172 51.9727 45.835 51.0352C46.3916 50.3174 46.8164 49.8193 47.2266 49.3652C47.6367 49.8193 48.0615 50.3174 48.6182 51.0352C49.3359 51.9727 50.127 53.0273 51.1523 54.0088C52.1777 55.0049 53.584 56.2354 55.9277 56.2354C57.9932 56.25 59.6631 54.5654 59.6631 52.5C59.6631 50.6982 58.374 49.1455 56.5869 48.8232C56.543 48.7939 56.4697 48.75 56.3672 48.6475C55.9277 48.2373 55.2539 47.4023 54.5361 46.4648C53.8184 45.5273 53.0273 44.4873 52.0166 43.4912C50.9912 42.4951 49.5703 41.2646 47.2412 41.25C44.8975 41.25 43.4766 42.4951 42.4512 43.4766C41.4258 44.4727 40.6494 45.5127 39.9316 46.4502C39.375 47.168 38.9355 47.666 38.54 48.1201C38.1299 47.666 37.6904 47.168 37.1484 46.4502C36.416 45.5127 35.6396 44.4727 34.6143 43.4766C33.5889 42.4805 32.1826 41.25 29.8389 41.25C27.4951 41.25 26.0742 42.4805 25.0635 43.4766C24.0381 44.4727 23.2471 45.5127 22.5293 46.4502C21.9727 47.168 21.5479 47.666 21.1377 48.1055C20.7275 47.666 20.3027 47.168 19.7461 46.4502C19.0283 45.5127 18.2373 44.458 17.2266 43.4619C16.2012 42.4805 14.7803 41.25 12.4512 41.2354L12.4365 41.25Z" fill="#1A1A1A"/>
</svg>
