<svg width="61" height="61" viewBox="0 0 61 61" fill="none" xmlns="http://www.w3.org/2000/svg">
<path d="M20.5547 52.6593C12.1699 52.6593 5.34961 45.839 5.34961 37.4542C5.34961 29.6495 17.3496 14.3038 18.7207 12.5812C19.0605 12.1534 19.5703 11.9015 20.1152 11.8956C20.666 11.8898 21.1758 12.1241 21.5273 12.5401C21.6152 12.6456 23.7363 15.1651 26.3437 18.7042C26.9355 19.5128 26.7656 20.6495 25.957 21.2413C25.1484 21.8331 24.0117 21.6632 23.4199 20.8546C22.1719 19.1554 21.0234 17.6905 20.1797 16.63C16.125 22.0206 8.97656 32.5382 8.97656 37.4542C8.97656 43.8351 14.168 49.0323 20.5547 49.0323C26.9414 49.0323 32.1328 43.8351 32.1328 37.4542C32.1328 36.4523 32.9473 35.6378 33.9492 35.6378C34.9512 35.6378 35.7656 36.4523 35.7656 37.4542C35.7598 45.839 28.9395 52.6593 20.5547 52.6593Z" fill="#1A1A1A"/>
<path d="M36.6797 56.9718C26.0508 56.9718 17.4082 48.3233 17.4082 37.7003C17.4082 27.5401 34.0137 6.50499 34.7227 5.61436C35.0625 5.18663 35.5723 4.93468 36.1172 4.92882C36.6621 4.92296 37.1777 5.15733 37.5293 5.57335C37.6465 5.70812 40.4004 8.98351 43.7871 13.5773C44.3789 14.3858 44.209 15.5226 43.4004 16.1144C42.5918 16.7062 41.4551 16.5362 40.8633 15.7276C39 13.1964 37.3125 11.0519 36.1816 9.65147C30.9434 16.5421 21.0352 30.9679 21.0352 37.7003C21.0352 46.3253 28.0547 53.3448 36.6797 53.3448C45.3047 53.3448 52.3242 46.3253 52.3242 37.7003C52.3242 35.9601 51.5508 32.5499 47.8477 26.2042C47.3437 25.337 47.6367 24.2296 48.5039 23.7257C49.3711 23.2218 50.4785 23.5148 50.9824 24.3819C54.3281 30.1183 55.9512 34.4718 55.9512 37.7062C55.9512 48.3292 47.3027 56.9718 36.6797 56.9718Z" fill="#1A1A1A"/>
</svg>
