<svg width="440" height="440" viewBox="0 0 440 440" fill="none" xmlns="http://www.w3.org/2000/svg">
<path fill-rule="evenodd" clip-rule="evenodd" d="M293.328 304.966C266.531 343.333 203.892 349.448 166.704 321.498C136.767 334.988 102.032 332.4 74.4402 314.635C46.8466 296.856 30.1762 266.333 30.1602 233.55C30.1602 173.753 84.0042 128.509 142.972 138.382C143.394 117.343 152.081 97.3026 167.129 82.5779C182.191 67.8396 202.441 59.5894 223.537 59.5894C277.445 59.5894 315.693 111.246 300.989 162.291C359.161 164.739 405.161 195.713 405.161 233.551C405.161 272.993 355.177 304.982 293.333 304.982L293.328 304.966ZM378.812 357.588C391.375 357.588 402.687 365.137 407.484 376.709C412.281 388.282 409.625 401.601 400.765 410.459C391.89 419.318 378.547 421.953 366.953 417.166C355.359 412.378 347.797 401.086 347.797 388.562C347.797 385.973 349.89 383.883 352.484 383.883C355.078 383.883 357.172 385.973 357.172 388.562C357.172 397.296 362.453 405.172 370.531 408.525C378.625 411.863 387.937 410.022 394.125 403.831C400.328 397.655 402.171 388.359 398.828 380.281C395.468 372.218 387.578 366.946 378.812 366.946H223.532C220.938 366.946 218.845 364.856 218.845 362.267C218.845 359.694 220.938 357.588 223.532 357.588H378.812ZM301.172 340.667H378.812C381.406 340.667 383.5 338.561 383.5 335.988C383.5 333.399 381.406 331.309 378.812 331.309H301.172C298.578 331.309 296.485 333.399 296.485 335.988C296.485 338.561 298.578 340.667 301.172 340.667ZM223.532 270.33C215.22 270.345 207.735 275.351 204.563 283.009C201.391 290.667 203.141 299.494 209.032 305.359C214.907 311.207 223.735 312.969 231.407 309.788C239.095 306.606 244.095 299.136 244.095 290.839C244.064 279.516 234.876 270.345 223.532 270.33ZM223.532 279.687C219.017 279.703 214.939 282.417 213.22 286.597C211.501 290.761 212.454 295.549 215.657 298.73C218.845 301.928 223.657 302.864 227.829 301.148C232.001 299.417 234.72 295.346 234.72 290.839C234.72 287.876 233.548 285.037 231.439 282.947C229.345 280.857 226.501 279.687 223.532 279.687ZM223.532 138.229C212.173 138.245 202.985 147.431 202.954 158.754V236.234C202.954 247.572 212.173 256.758 223.532 256.758C234.891 256.758 244.095 247.572 244.095 236.234V158.754C244.063 147.431 234.876 138.245 223.532 138.229ZM223.532 147.587C217.36 147.603 212.36 152.594 212.329 158.754V236.234C212.329 242.395 217.345 247.401 223.532 247.401C229.704 247.401 234.72 242.395 234.72 236.234V158.754C234.689 152.594 229.704 147.603 223.532 147.587Z" fill="#1A1A1A"/>
</svg>
