<svg width={294} height={288} viewBox="0 0 294 288" fill="none" xmlns="http://www.w3.org/2000/svg">
  <path d="M144.118 181.45C144.118 194.199 136.759 203.447 126.948 203.447C117.137 203.447 109.778 193.833 109.778 181.45C109.778 170.686 114.997 159.453 127.157 159.453C139.317 159.453 144.118 171.627 144.118 181.45ZM218.433 210.71C214.118 213.184 209.506 215.098 204.708 216.405C200.559 231.082 191.75 244.007 179.614 253.226C167.477 262.445 152.672 267.458 137.438 267.506C131.233 267.502 125.056 266.676 119.068 265.05C110.174 262.693 101.835 258.593 94.534 252.988C87.2332 247.382 81.1155 240.382 76.5351 232.394C75.1463 229.964 73.9088 227.452 72.8297 224.87C65.3111 226.352 57.5647 226.232 50.0956 224.517C42.6264 222.801 35.6023 219.529 29.481 214.913C23.3597 210.297 18.2787 204.442 14.5692 197.728C10.8597 191.015 8.60507 183.594 7.95219 175.95C7.29932 168.305 8.2629 160.609 10.7801 153.362C13.2973 146.116 17.3117 139.482 22.5614 133.892C27.8112 128.303 34.1785 123.885 41.2483 120.924C48.3181 117.964 55.9316 116.529 63.5926 116.712C70.7564 117.424 77.628 119.921 83.5804 123.975C84.1524 124.366 84.7964 124.639 85.4749 124.778C86.1534 124.917 86.8528 124.92 87.5324 124.786C88.2119 124.652 88.858 124.384 89.4329 123.997C90.0079 123.61 90.5002 123.113 90.8812 122.534C91.2622 121.955 91.5242 121.305 91.6521 120.624C91.7799 119.942 91.7709 119.242 91.6257 118.564C91.4805 117.886 91.2019 117.244 90.8062 116.675C90.4105 116.106 89.9056 115.621 89.321 115.249C85.6927 112.834 81.7848 110.869 77.6832 109.397C80.3757 103.087 84.5462 97.5183 89.8421 93.1624C95.1379 88.8065 101.404 85.7914 108.109 84.3718C114.815 82.9522 121.763 83.1699 128.367 85.0066C134.97 86.8433 141.035 90.2449 146.049 94.9239C148.934 97.6685 151.428 100.798 153.459 104.224C152.236 112.767 152.236 121.441 153.459 129.984C153.714 131.172 154.374 132.234 155.327 132.988C156.28 133.741 157.465 134.138 158.678 134.111H159.774C161.007 133.838 162.099 133.126 162.848 132.107C163.596 131.089 163.95 129.833 163.845 128.573C162.638 120.029 162.638 111.358 163.845 102.814C165.463 87.1386 183.363 82.6974 194.896 82.4884C195.912 82.1115 196.747 81.363 197.234 80.3939C197.72 79.4247 197.821 78.3069 197.516 77.2661C197.212 76.2253 196.524 75.3389 195.592 74.7857C194.661 74.2324 193.554 74.0536 192.496 74.2851C187.116 75.6976 181.663 76.8139 176.161 77.6291C179.188 68.6944 184.72 63.3126 191.817 62.7901C199.276 63.1708 206.491 65.5728 212.692 69.7394C213.395 70.1491 213.968 70.7486 214.347 71.4694C214.725 72.1901 214.893 73.003 214.832 73.8149C214.22 77.9286 212.531 81.8068 209.937 85.0554C207.343 88.3041 203.936 90.8075 200.063 92.3114C198.149 93.0961 196.124 93.5723 194.061 93.7221C192.434 93.8233 190.801 93.7003 189.208 93.3564C183.206 94.3491 175.587 96.8571 174.387 103.023C186.793 99.7331 199.937 100.627 211.785 105.567C223.633 110.506 233.526 119.216 239.934 130.349C240.453 131.211 240.923 132.1 241.343 133.014C248.245 146.386 249.715 161.913 245.445 176.345C241.175 190.777 231.496 202.997 218.433 210.449V210.71ZM98.7147 142.158C99.2094 142.932 99.8993 143.562 100.715 143.984C101.53 144.406 102.442 144.605 103.359 144.561C104.27 144.511 105.152 144.223 105.917 143.725C107.078 142.976 107.895 141.796 108.188 140.444C108.482 139.092 108.228 137.679 107.482 136.515C105.921 134.135 104.176 131.881 102.263 129.775C101.82 129.221 101.269 128.765 100.643 128.432C100.018 128.099 99.3314 127.897 98.6255 127.838C97.9195 127.779 97.209 127.865 96.5372 128.09C95.8655 128.315 95.2465 128.675 94.718 129.147C94.1896 129.619 93.7626 130.194 93.4633 130.837C93.164 131.48 92.9985 132.177 92.9769 132.886C92.9554 133.595 93.0782 134.301 93.3379 134.96C93.5976 135.62 93.9888 136.22 94.4876 136.724C96.0358 138.422 97.4492 140.239 98.7147 142.158ZM154.608 180.823C154.608 163.528 143.648 151.72 127.418 151.72C111.188 151.72 99.3932 162.849 99.3932 181.763C99.3932 199.633 111.188 210.867 126.478 210.867C140.152 210.867 154.608 201.775 154.608 180.823ZM188.947 206.948C188.988 204.725 188.416 202.534 187.292 200.616C186.169 198.698 184.538 197.129 182.58 196.08C184.089 195.026 185.316 193.618 186.154 191.978C186.991 190.338 187.412 188.516 187.381 186.675C187.314 185.02 186.905 183.396 186.181 181.906C185.457 180.417 184.433 179.093 183.173 178.018C181.914 176.944 180.446 176.142 178.862 175.662C177.278 175.183 175.612 175.036 173.969 175.232C170.853 175.244 167.775 175.921 164.941 177.218C162.54 178.315 158.678 180.196 158.678 183.279C158.677 183.872 158.806 184.458 159.055 184.996C159.304 185.534 159.667 186.011 160.119 186.395C160.572 186.778 161.102 187.057 161.673 187.214C162.245 187.371 162.843 187.401 163.427 187.302C163.427 187.302 166.193 185.63 167.55 184.951C169.167 184.114 170.95 183.65 172.769 183.592C176.161 183.592 177.988 185.055 177.988 187.772C177.85 188.913 177.341 189.976 176.539 190.798C175.737 191.62 174.687 192.154 173.552 192.318C170.681 193.049 167.654 192.318 164.784 192.788C163.941 192.924 163.162 193.322 162.557 193.925C161.953 194.529 161.553 195.307 161.414 196.151C161.276 196.994 161.406 197.86 161.786 198.626C162.166 199.391 162.776 200.018 163.532 200.417C165.222 200.926 167.005 201.051 168.75 200.782C170.851 200.659 172.956 200.925 174.961 201.566C176.074 201.938 177.051 202.634 177.766 203.565C178.482 204.495 178.904 205.619 178.979 206.791C178.979 210.762 175.483 212.695 171.934 212.695C169.017 212.544 166.168 211.76 163.584 210.396C162.744 209.931 161.823 209.629 160.87 209.508C160 209.512 159.154 209.79 158.452 210.305C157.75 210.819 157.228 211.543 156.962 212.372C156.695 213.201 156.698 214.093 156.968 214.921C157.239 215.749 157.765 216.469 158.469 216.98C168.75 224.086 188.947 222.518 188.947 207.105V206.948ZM156.904 64.7756C158.496 59.3102 160.721 54.0496 163.532 49.1006L165.88 44.9729C166.36 44.1326 167.111 43.4799 168.009 43.1213C168.907 42.7627 169.9 42.7192 170.826 42.9979C171.752 43.2767 172.557 43.8613 173.109 44.6564C173.66 45.4515 173.927 46.4102 173.865 47.3764L171.725 51.1384C166.167 60.883 162.985 71.803 162.436 83.0109L171.255 80.5029C171.652 75.8875 172.562 71.3309 173.969 66.9179C178.401 65.4307 182.428 62.9344 185.734 59.6251C189.039 56.3159 191.532 52.284 193.018 47.8466C198.236 34.2616 197.245 18.8479 190.513 10.4356C189.923 9.65312 189.084 9.09659 188.134 8.85888C187.184 8.62117 186.182 8.71665 185.294 9.12939C174.856 13.4661 163.271 19.0569 156.538 28.0439C149.806 37.0309 149.493 50.3546 156.538 64.6189L156.904 64.7756Z" fill="#1A1A1A" />
</svg>
