<svg width="60" height="60" viewBox="0 0 60 60" fill="none" xmlns="http://www.w3.org/2000/svg">
<path d="M51.7333 43.3235C52.6265 39.9897 52.741 36.4955 52.0678 33.1105C51.3943 29.7255 49.9515 26.541 47.8505 23.8029C45.7495 21.0648 43.0468 18.8468 39.9515 17.3204C36.8563 15.7939 33.4513 15 30 15C26.5488 15 23.1438 15.7939 20.0485 17.3204C16.9532 18.8468 14.2505 21.0648 12.1496 23.8029C10.0486 26.541 8.60563 29.7255 7.93233 33.1105C7.25903 36.4955 7.37343 39.9897 8.26668 43.3235" stroke="#1A1A1A" stroke-width="5" stroke-linecap="round"/>
<path d="M31.9141 38.9558C33.1329 40.729 32.2759 43.4345 29.9999 44.9985C27.7241 46.5625 24.8912 46.3928 23.6725 44.6193C22.3737 42.7293 17.8903 32.1023 15.1677 25.5285C14.6549 24.2906 16.1691 23.25 17.1411 24.1725C22.3018 29.0708 30.6154 37.0658 31.9141 38.9558Z" stroke="#1A1A1A" stroke-width="5"/>
<path d="M30 15V20" stroke="#1A1A1A" stroke-width="5" stroke-linecap="round"/>
<path d="M14.0898 21.5894L17.6254 25.125" stroke="#1A1A1A" stroke-width="5" stroke-linecap="round"/>
<path d="M45.9105 21.5894L42.375 25.125" stroke="#1A1A1A" stroke-width="5" stroke-linecap="round"/>
<path d="M51.734 43.3228L46.9043 42.0288" stroke="#1A1A1A" stroke-width="5" stroke-linecap="round"/>
<path d="M8.26562 43.3228L13.0953 42.0288" stroke="#1A1A1A" stroke-width="5" stroke-linecap="round"/>
</svg>
